<?xml version="1.0" encoding="utf-8"?>
<svg
	version="1.1"
	xmlns="http://www.w3.org/2000/svg"
	xmlns:xlink="http://www.w3.org/1999/xlink"
	x="0%" y="0%"
	width="100%" height="100%"
	viewBox="0 0 24.0 24.0"
	enable-background="new 0 0 24.0 24.0"
	xml:space="preserve">
	<path
		fill="#FFFFFF"
		stroke="#FFFFFF"
		fill-opacity="0.996"
		stroke-opacity="1.000"
		fill-rule="nonzero"
		stroke-width="1.2162774"
		stroke-linejoin="round"
		stroke-linecap="round"
		d="M3.08,0.87L20.82,0.87A1.19 1.19 0 0 1 22.00,2.05L22.00,22.02A1.19 1.19 0 0 1 20.82,23.21L3.08,23.21A1.19 1.19 0 0 1 1.89,22.02L1.89,2.05A1.19 1.19 0 0 1 3.08,0.87zM3.84,14.73L8.46,10.23L10.93,10.52L14.24,4.96L18.39,9.38L19.81,14.62L3.84,14.73zM1.95,2.22L1.93,15.37A1.14 1.14 0 0 0 3.07,16.52L20.91,16.54A1.14 1.14 0 0 0 22.06,15.40L22.08,2.24A1.14 1.14 0 0 0 20.94,1.10L3.09,1.08A1.14 1.14 0 0 0 1.95,2.22z"/>
</svg>